<svg xmlns="http://www.w3.org/2000/svg" viewBox="0 0 16.5 18"><defs><style>.cls-1{fill:#dbd516;}</style></defs><title>Asset 2</title><g id="Layer_2" data-name="Layer 2"><g id="Layer_1-2" data-name="Layer 1"><path class="cls-1" d="M15.77,4.23h0L12.06.5,11,1.56l2.11,2.11A2.5,2.5,0,0,0,14,8.5a2.56,2.56,0,0,0,1-.21V15.5a1,1,0,0,1-2,0V11a2,2,0,0,0-2-2H10V2A2,2,0,0,0,8,0H2A2,2,0,0,0,0,2V18H10V10.5h1.5v5a2.5,2.5,0,0,0,5,0V6A2.5,2.5,0,0,0,15.77,4.23ZM8,7H2V2H8Zm6,0a1,1,0,1,1,1-1A1,1,0,0,1,14,7Z"/></g></g></svg>